<svg xmlns="http://www.w3.org/2000/svg" viewBox="0 0 36 36" width="36" height="36" shape-rendering="crispEdges">
  <rect x="8" y="0" width="4.5" height="4.5" fill="#550000"/>
  <rect x="12" y="0" width="4.5" height="4.5" fill="#550000"/>
  <rect x="20" y="0" width="4.5" height="4.5" fill="#550000"/>
  <rect x="24" y="0" width="4.5" height="4.5" fill="#550000"/>
  <rect x="4" y="4" width="4.5" height="4.5" fill="#550000"/>
  <rect x="8" y="4" width="4.5" height="4.5" fill="#F42323"/>
  <rect x="12" y="4" width="4.5" height="4.5" fill="#F42323"/>
  <rect x="16" y="4" width="4.5" height="4.5" fill="#550000"/>
  <rect x="20" y="4" width="4.5" height="4.5" fill="#F42323"/>
  <rect x="24" y="4" width="4.5" height="4.5" fill="#F42323"/>
  <rect x="28" y="4" width="4.5" height="4.5" fill="#550000"/>
  <rect x="0" y="8" width="4.5" height="4.5" fill="#550000"/>
  <rect x="4" y="8" width="4.5" height="4.5" fill="#F42323"/>
  <rect x="8" y="8" width="4.5" height="4.5" fill="#550000"/>
  <rect x="12" y="8" width="4.5" height="4.5" fill="#F42323"/>
  <rect x="16" y="8" width="4.5" height="4.5" fill="#F42323"/>
  <rect x="20" y="8" width="4.5" height="4.5" fill="#F42323"/>
  <rect x="24" y="8" width="4.5" height="4.5" fill="#550000"/>
  <rect x="28" y="8" width="4.5" height="4.5" fill="#F42323"/>
  <rect x="32" y="8" width="4.5" height="4.5" fill="#550000"/>
  <rect x="0" y="12" width="4.5" height="4.5" fill="#550000"/>
  <rect x="4" y="12" width="4.5" height="4.5" fill="#F42323"/>
  <rect x="8" y="12" width="4.5" height="4.5" fill="#F42323"/>
  <rect x="12" y="12" width="4.5" height="4.5" fill="#550000"/>
  <rect x="16" y="12" width="4.5" height="4.5" fill="#F42323"/>
  <rect x="20" y="12" width="4.5" height="4.5" fill="#550000"/>
  <rect x="24" y="12" width="4.5" height="4.5" fill="#F42323"/>
  <rect x="28" y="12" width="4.5" height="4.5" fill="#F42323"/>
  <rect x="32" y="12" width="4.5" height="4.5" fill="#550000"/>
  <rect x="0" y="16" width="4.5" height="4.5" fill="#550000"/>
  <rect x="4" y="16" width="4.5" height="4.5" fill="#F42323"/>
  <rect x="8" y="16" width="4.5" height="4.5" fill="#F42323"/>
  <rect x="12" y="16" width="4.5" height="4.5" fill="#F42323"/>
  <rect x="16" y="16" width="4.5" height="4.5" fill="#F42323"/>
  <rect x="20" y="16" width="4.5" height="4.5" fill="#F42323"/>
  <rect x="24" y="16" width="4.5" height="4.5" fill="#F42323"/>
  <rect x="28" y="16" width="4.5" height="4.5" fill="#F42323"/>
  <rect x="32" y="16" width="4.5" height="4.5" fill="#550000"/>
  <rect x="4" y="20" width="4.5" height="4.5" fill="#550000"/>
  <rect x="8" y="20" width="4.5" height="4.5" fill="#F42323"/>
  <rect x="12" y="20" width="4.5" height="4.5" fill="#F42323"/>
  <rect x="16" y="20" width="4.5" height="4.5" fill="#F42323"/>
  <rect x="20" y="20" width="4.5" height="4.5" fill="#F42323"/>
  <rect x="24" y="20" width="4.5" height="4.5" fill="#F42323"/>
  <rect x="28" y="20" width="4.5" height="4.5" fill="#550000"/>
  <rect x="8" y="24" width="4.5" height="4.5" fill="#550000"/>
  <rect x="12" y="24" width="4.5" height="4.5" fill="#F42323"/>
  <rect x="16" y="24" width="4.5" height="4.5" fill="#F42323"/>
  <rect x="20" y="24" width="4.5" height="4.5" fill="#F42323"/>
  <rect x="24" y="24" width="4.5" height="4.5" fill="#550000"/>
  <rect x="12" y="28" width="4.5" height="4.5" fill="#550000"/>
  <rect x="16" y="28" width="4.5" height="4.5" fill="#F42323"/>
  <rect x="20" y="28" width="4.5" height="4.5" fill="#550000"/>
  <rect x="16" y="32" width="4.5" height="4.5" fill="#550000"/>
</svg>